<svg width="237" height="26" viewBox="0 0 237 26" fill="none" xmlns="http://www.w3.org/2000/svg">
<path fill-rule="evenodd" clip-rule="evenodd" d="M75.7514 23.3034C75.7514 23.8102 75.4961 24.0637 74.9854 24.0637H65.9885C65.7712 24.0637 65.5946 24.0003 65.4588 23.8736C65.323 23.7469 65.2551 23.5678 65.2551 23.3364C65.2551 23.1381 65.3013 22.9783 65.3936 22.8571C65.486 22.7359 65.6299 22.6367 65.8255 22.5595L66.5264 22.3447C66.7002 22.2896 66.836 22.1849 66.9338 22.0306C67.0316 21.8764 67.0805 21.656 67.0805 21.3695V11.8157C67.0805 11.6615 67.0425 11.532 66.9664 11.4273C66.8904 11.3226 66.7491 11.2262 66.5427 11.1381L65.5974 10.824C65.3474 10.7028 65.1682 10.5733 65.0595 10.4356C64.9508 10.2978 64.8965 10.1298 64.8965 9.93145C64.8965 9.7331 64.9644 9.57057 65.1002 9.44385L65.1536 9.3993C65.2837 9.30228 65.4534 9.25377 65.6625 9.25377H67.0928L67.0815 9.15717C67.051 8.96399 66.9746 8.77856 66.8523 8.60087C66.6894 8.36396 66.5046 8.09674 66.2982 7.79922C66.0917 7.5017 65.907 7.14633 65.744 6.7331C65.5811 6.31988 65.4996 5.81024 65.4996 5.20418C65.4996 3.76065 65.9885 2.60638 66.9664 1.74137C67.9444 0.876355 69.3352 0.443848 71.1389 0.443848C72.3015 0.443848 73.2659 0.631175 74.0319 1.00583C74.798 1.38049 75.3711 1.87911 75.7514 2.5017C76.1317 3.12429 76.3219 3.80473 76.3219 4.54302C76.3219 5.41354 76.0964 6.06644 75.6455 6.5017C75.1946 6.93696 74.616 7.15459 73.9097 7.15459C73.1273 7.15459 72.4971 6.90115 72.019 6.39426C71.5409 5.88737 71.3019 5.2152 71.3019 4.37773V2.90666C71.3019 2.52098 71.2258 2.23724 71.0737 2.05542C70.9216 1.8736 70.688 1.78269 70.3729 1.78269C69.9708 1.78269 69.6666 1.92043 69.4601 2.19591C69.2537 2.4714 69.1505 2.86809 69.1505 3.386C69.1505 3.91492 69.2727 4.41079 69.5172 4.8736C69.7617 5.33641 70.0632 5.76892 70.4218 6.17112C70.7803 6.57332 71.1389 6.959 71.4975 7.32815C71.856 7.69729 72.1576 8.06093 72.402 8.41905L72.4717 8.52641C72.6037 8.74096 72.6918 8.95451 72.7358 9.16707L72.7507 9.25377H75.1647C75.4146 9.25377 75.6075 9.30611 75.7433 9.41079C75.8791 9.51547 75.947 9.67801 75.947 9.89839C75.947 10.229 75.8058 10.4989 75.5232 10.7083C75.2407 10.9177 74.7952 11.0224 74.1868 11.0224H73.0295V21.3199C73.0295 21.6284 73.0757 21.8653 73.1681 22.0306C73.2604 22.1959 73.4098 22.2951 73.6163 22.3281L75.018 22.543C75.2679 22.5761 75.4526 22.656 75.5721 22.7827C75.6917 22.9094 75.7514 23.083 75.7514 23.3034ZM43.6593 23.6835C42.6814 24.1573 41.5405 24.3943 40.2366 24.3943C38.8567 24.3943 37.6207 24.1022 36.5287 23.5182C35.4367 22.9342 34.5755 22.0885 33.9453 20.981C33.3151 19.8736 33 18.5265 33 16.9397C33 15.408 33.3287 14.0389 33.9861 12.8323C34.6434 11.6257 35.5589 10.6725 36.7324 9.97277C37.9059 9.27305 39.275 8.92319 40.8397 8.92319C42.1762 8.92319 43.3035 9.12153 44.2216 9.51823C45.1398 9.91492 45.8406 10.4521 46.3242 11.1298C46.8077 11.8075 47.0495 12.5651 47.0495 13.4025C47.0495 14.2841 46.7968 14.9755 46.2916 15.4769C45.7863 15.9783 45.099 16.229 44.2298 16.229C43.3388 16.229 42.6624 15.9728 42.2006 15.4604C41.7388 14.948 41.5079 14.2455 41.5079 13.3529V12.2951C41.5079 11.7551 41.4101 11.3474 41.2145 11.0719C41.0189 10.7965 40.7419 10.6587 40.3833 10.6587C40.0247 10.6587 39.7015 10.8047 39.4135 11.0967C39.1256 11.3888 38.9028 11.8268 38.7453 12.4108C38.5877 12.9948 38.509 13.7166 38.509 14.5761C38.509 15.8102 38.691 16.8461 39.055 17.6835C39.419 18.521 39.9161 19.1491 40.5463 19.5678C41.1765 19.9865 41.8936 20.1959 42.6977 20.1959C43.5018 20.1959 44.1755 20.0775 44.7187 19.8405C45.262 19.6036 45.6804 19.2042 45.9737 18.6422C46.1367 18.4879 46.2644 18.3888 46.3568 18.3447C46.4491 18.3006 46.5388 18.2786 46.6257 18.2786C46.7344 18.2896 46.824 18.3419 46.8946 18.4356C46.9652 18.5292 46.9951 18.6753 46.9843 18.8736C46.8973 19.9535 46.5659 20.9067 45.99 21.7331C45.4142 22.5595 44.6373 23.2097 43.6593 23.6835ZM60.2269 23.3529C59.0045 24.0251 57.5838 24.3612 55.9648 24.3612C54.3893 24.3612 53.0066 24.0334 51.8168 23.3777C50.627 22.7221 49.7007 21.8157 49.0379 20.6587C48.3751 19.5017 48.0437 18.1629 48.0437 16.6422C48.0437 15.1876 48.3914 13.8791 49.0868 12.7166C49.7822 11.554 50.7438 10.6312 51.9717 9.94798C53.1995 9.26478 54.612 8.92319 56.2093 8.92319C57.7957 8.92319 59.1811 9.25377 60.3655 9.91492C61.5498 10.5761 62.4734 11.4907 63.1362 12.6587C63.7991 13.8268 64.1305 15.1766 64.1305 16.7083C64.1305 18.1629 63.7855 19.4659 63.0955 20.6174C62.4055 21.7689 61.4493 22.6808 60.2269 23.3529ZM57.2035 22.6422C56.8667 22.7083 56.538 22.5595 56.2175 22.1959C55.8969 21.8323 55.5927 21.2207 55.3047 20.3612C55.0168 19.5017 54.7424 18.3722 54.4817 16.9728C54.2317 15.5733 54.0905 14.4218 54.0579 13.5182C54.0253 12.6146 54.0905 11.9315 54.2535 11.4686C54.4165 11.0058 54.6664 10.7359 55.0032 10.6587C55.3401 10.5926 55.6687 10.7414 55.9893 11.105C56.3098 11.4686 56.6168 12.0802 56.9102 12.9397C57.2035 13.7992 57.4806 14.9287 57.7414 16.3281C58.0022 17.7276 58.1461 18.8819 58.1733 19.791C58.2005 20.7 58.1298 21.386 57.9614 21.8488C57.793 22.3116 57.5404 22.5761 57.2035 22.6422ZM86.3619 24.0637C86.8726 24.0637 87.1279 23.8102 87.1279 23.3034C87.1279 23.083 87.0681 22.9094 86.9486 22.7827C86.8291 22.656 86.6444 22.5761 86.3945 22.543L84.9928 22.3281C84.7863 22.2951 84.6369 22.1959 84.5446 22.0306C84.4522 21.8653 84.406 21.6284 84.406 21.3199V11.0224H85.5632C86.1717 11.0224 86.6172 10.9177 86.8997 10.7083C87.1822 10.4989 87.3235 10.229 87.3235 9.89839C87.3235 9.67801 87.2556 9.51547 87.1198 9.41079C86.9839 9.30611 86.7911 9.25377 86.5411 9.25377H84.1271L84.1122 9.16707C84.0682 8.95451 83.9802 8.74096 83.8482 8.52641L83.7785 8.41905C83.534 8.06093 83.2325 7.69729 82.8739 7.32815C82.5154 6.959 82.1568 6.57332 81.7982 6.17112C81.4397 5.76892 81.1381 5.33641 80.8937 4.8736C80.6492 4.41079 80.5269 3.91492 80.5269 3.386C80.5269 2.86809 80.6302 2.4714 80.8366 2.19591C81.0431 1.92043 81.3473 1.78269 81.7493 1.78269C82.0644 1.78269 82.2981 1.8736 82.4502 2.05542C82.6023 2.23724 82.6784 2.52098 82.6784 2.90666V4.37773C82.6784 5.2152 82.9174 5.88737 83.3955 6.39426C83.8736 6.90115 84.5038 7.15459 85.2862 7.15459C85.9924 7.15459 86.571 6.93696 87.022 6.5017C87.4729 6.06644 87.6984 5.41354 87.6984 4.54302C87.6984 3.80473 87.5082 3.12429 87.1279 2.5017C86.7476 1.87911 86.1744 1.38049 85.4084 1.00583C84.6424 0.631175 83.678 0.443848 82.5154 0.443848C80.7117 0.443848 79.3208 0.876355 78.3429 1.74137C77.365 2.60638 76.876 3.76065 76.876 5.20418C76.876 5.81024 76.9575 6.31988 77.1205 6.7331C77.2835 7.14633 77.4682 7.5017 77.6747 7.79922C77.8811 8.09674 78.0658 8.36396 78.2288 8.60087C78.3511 8.77856 78.4275 8.96399 78.458 9.15717L78.4692 9.25377H77.039C76.8299 9.25377 76.6602 9.30228 76.5301 9.3993L76.4767 9.44385C76.3409 9.57057 76.273 9.7331 76.273 9.93145C76.273 10.1298 76.3273 10.2978 76.436 10.4356C76.5446 10.5733 76.7239 10.7028 76.9738 10.824L77.9192 11.1381C78.1256 11.2262 78.2669 11.3226 78.3429 11.4273C78.419 11.532 78.457 11.6615 78.457 11.8157V21.3695C78.457 21.656 78.4081 21.8764 78.3103 22.0306C78.2125 22.1849 78.0767 22.2896 77.9029 22.3447L77.202 22.5595C77.0064 22.6367 76.8625 22.7359 76.7701 22.8571C76.6777 22.9783 76.6316 23.1381 76.6316 23.3364C76.6316 23.5678 76.6995 23.7469 76.8353 23.8736C76.9711 24.0003 77.1477 24.0637 77.365 24.0637H86.3619ZM99.1237 23.5843C98.0697 24.1243 96.8528 24.3943 95.4728 24.3943C93.9516 24.3943 92.6151 24.0775 91.4633 23.4438C90.3116 22.8102 89.4124 21.9232 88.7659 20.7827C88.1194 19.6422 87.7961 18.3226 87.7961 16.824C87.7961 15.2483 88.1085 13.8681 88.7333 12.6835C89.3581 11.4989 90.2627 10.5761 91.447 9.91492C92.6314 9.25377 94.0548 8.92319 95.7173 8.92319C97.1299 8.92319 98.3468 9.20142 99.3682 9.7579C100.39 10.3144 101.175 11.0692 101.723 12.0224C102.272 12.9755 102.546 14.0361 102.546 15.2042C102.546 15.7111 102.411 16.1105 102.139 16.4025L102.074 16.4673C101.806 16.7161 101.437 16.8405 100.965 16.8405H93.5147L93.5307 16.9168C93.7284 17.8243 94.0661 18.5509 94.5438 19.0967C95.3587 20.0279 96.4453 20.4934 97.8035 20.4934C98.6728 20.4934 99.4416 20.2951 100.11 19.8984C100.778 19.5017 101.226 18.9507 101.454 18.2455C101.585 18.1022 101.702 18.0058 101.805 17.9562C101.908 17.9067 101.998 17.8819 102.074 17.8819C102.182 17.8819 102.275 17.9259 102.351 18.0141C102.427 18.1022 102.465 18.251 102.465 18.4604C102.465 19.5403 102.172 20.5292 101.585 21.4273C100.998 22.3254 100.178 23.0444 99.1237 23.5843ZM93.3447 15.5156C93.3291 15.262 93.3214 14.9984 93.3214 14.7248C93.3214 13.689 93.3975 12.8736 93.5496 12.2786C93.7017 11.6835 93.8973 11.262 94.1363 11.0141C94.3754 10.7662 94.6416 10.6422 94.935 10.6422C95.3153 10.6422 95.6711 10.9673 96.0025 11.6174C96.3339 12.2675 96.4996 13.3474 96.4996 14.8571C96.4996 15.3199 96.2932 15.5513 95.8803 15.5513H93.3467L93.3447 15.5156ZM114.705 23.5843C113.651 24.1243 112.434 24.3943 111.054 24.3943C109.533 24.3943 108.197 24.0775 107.045 23.4438C105.893 22.8102 104.994 21.9232 104.347 20.7827C103.701 19.6422 103.378 18.3226 103.378 16.824C103.378 15.2483 103.69 13.8681 104.315 12.6835C104.94 11.4989 105.844 10.5761 107.029 9.91492C108.213 9.25377 109.636 8.92319 111.299 8.92319C112.711 8.92319 113.928 9.20142 114.95 9.7579C115.971 10.3144 116.756 11.0692 117.305 12.0224C117.854 12.9755 118.128 14.0361 118.128 15.2042C118.128 15.7111 117.992 16.1105 117.721 16.4025L117.656 16.4673C117.388 16.7161 117.018 16.8405 116.547 16.8405H109.096L109.112 16.9168C109.31 17.8243 109.648 18.5509 110.125 19.0967C110.94 20.0279 112.027 20.4934 113.385 20.4934C114.254 20.4934 115.023 20.2951 115.691 19.8984C116.36 19.5017 116.808 18.9507 117.036 18.2455C117.166 18.1022 117.283 18.0058 117.386 17.9562C117.49 17.9067 117.579 17.8819 117.655 17.8819C117.764 17.8819 117.856 17.9259 117.932 18.0141C118.008 18.1022 118.046 18.251 118.046 18.4604C118.046 19.5403 117.753 20.5292 117.166 21.4273C116.58 22.3254 115.759 23.0444 114.705 23.5843ZM108.926 15.5156C108.911 15.262 108.903 14.9984 108.903 14.7248C108.903 13.689 108.979 12.8736 109.131 12.2786C109.283 11.6835 109.479 11.262 109.718 11.0141C109.957 10.7662 110.223 10.6422 110.517 10.6422C110.897 10.6422 111.253 10.9673 111.584 11.6174C111.915 12.2675 112.081 13.3474 112.081 14.8571C112.081 15.3199 111.875 15.5513 111.462 15.5513H108.928L108.926 15.5156ZM128.6 23.8571C128.464 23.9948 128.266 24.0637 128.005 24.0637H119.856C119.617 24.0637 119.429 23.9976 119.293 23.8653C119.158 23.7331 119.09 23.5513 119.09 23.3199C119.09 23.1436 119.13 22.9976 119.212 22.8819C119.293 22.7662 119.405 22.6587 119.546 22.5596L119.921 22.4108C120.062 22.3447 120.16 22.24 120.214 22.0967C120.269 21.9535 120.296 21.7166 120.296 21.386V12.9893C120.296 12.7248 120.266 12.5348 120.206 12.4191C120.146 12.3034 120.046 12.2124 119.905 12.1463L119.481 12.0967C119.329 12.0086 119.217 11.9149 119.147 11.8157C119.076 11.7166 119.041 11.5899 119.041 11.4356C119.041 11.2593 119.095 11.1022 119.204 10.9645C119.312 10.8268 119.497 10.7083 119.758 10.6091L124.387 9.27029C124.658 9.1601 124.886 9.08297 125.071 9.03889C125.256 8.99481 125.413 8.97277 125.544 8.97277C125.729 8.97277 125.867 9.03889 125.959 9.17112L125.989 9.21907C126.065 9.35729 126.118 9.57822 126.147 9.88186L126.271 12.4503L126.299 12.3555C126.354 12.1766 126.415 12.0049 126.481 11.8405C126.878 10.8543 127.402 10.1215 128.054 9.64219C128.706 9.16286 129.418 8.92319 130.189 8.92319C131.123 8.92319 131.841 9.23724 132.34 9.86534C132.84 10.4934 133.09 11.4466 133.09 12.7248C133.09 13.9921 132.829 14.9232 132.308 15.5182C131.786 16.1133 131.113 16.4108 130.287 16.4108C129.483 16.4108 128.888 16.2069 128.502 15.7992C128.116 15.3915 127.913 14.813 127.891 14.0637L127.875 13.4025C127.864 13.1491 127.815 12.9507 127.728 12.8075C127.641 12.6642 127.5 12.5926 127.304 12.5926C127.109 12.5926 126.937 12.6945 126.791 12.8984C126.644 13.1023 126.533 13.4135 126.457 13.8323C126.381 14.251 126.343 14.7854 126.343 15.4356V21.2538C126.343 21.5623 126.391 21.8075 126.489 21.9893C126.587 22.1711 126.739 22.2841 126.946 22.3281L128.168 22.5761C128.396 22.6091 128.559 22.6945 128.657 22.8323C128.755 22.97 128.804 23.1326 128.804 23.3199C128.804 23.5403 128.736 23.7193 128.6 23.8571ZM141.631 24.3612C143.25 24.3612 144.67 24.0251 145.893 23.3529C147.115 22.6808 148.071 21.7689 148.761 20.6174C149.451 19.4659 149.796 18.1629 149.796 16.7083C149.796 15.1766 149.465 13.8268 148.802 12.6587C148.139 11.4907 147.216 10.5761 146.031 9.91492C144.847 9.25377 143.462 8.92319 141.875 8.92319C140.278 8.92319 138.865 9.26478 137.637 9.94798C136.41 10.6312 135.448 11.554 134.753 12.7166C134.057 13.8791 133.71 15.1876 133.71 16.6422C133.71 18.1629 134.041 19.5017 134.704 20.6587C135.367 21.8157 136.293 22.7221 137.483 23.3777C138.672 24.0334 140.055 24.3612 141.631 24.3612ZM141.883 22.1959C142.204 22.5595 142.533 22.7083 142.869 22.6422C143.206 22.5761 143.459 22.3116 143.627 21.8488C143.796 21.386 143.866 20.7 143.839 19.791C143.812 18.8819 143.668 17.7276 143.407 16.3281C143.146 14.9287 142.869 13.7992 142.576 12.9397C142.283 12.0802 141.976 11.4686 141.655 11.105C141.335 10.7414 141.006 10.5926 140.669 10.6587C140.332 10.7359 140.082 11.0058 139.919 11.4686C139.756 11.9315 139.691 12.6146 139.724 13.5182C139.756 14.4218 139.898 15.5733 140.147 16.9728C140.408 18.3722 140.683 19.5017 140.971 20.3612C141.259 21.2207 141.563 21.8323 141.883 22.1959ZM162.721 24.3943C163.634 24.3943 164.384 24.2262 164.97 23.8901C165.557 23.554 165.994 23.1546 166.282 22.6918C166.57 22.229 166.714 21.8047 166.714 21.4191C166.714 21.2538 166.679 21.116 166.608 21.0058C166.538 20.8956 166.443 20.8405 166.323 20.8405C166.269 20.8405 166.22 20.8516 166.176 20.8736C166.133 20.8956 166.095 20.9287 166.062 20.9728C166.008 21.1711 165.924 21.3089 165.81 21.386C165.696 21.4631 165.573 21.5017 165.443 21.5017C165.258 21.5017 165.12 21.4383 165.027 21.3116C164.935 21.1849 164.889 21.0168 164.889 20.8075V13.5017C164.889 12.0472 164.397 10.9204 163.414 10.1215C162.43 9.32264 160.89 8.92319 158.793 8.92319C157.163 8.92319 155.802 9.12704 154.71 9.53476C153.618 9.94247 152.798 10.4631 152.249 11.0967C151.701 11.7303 151.426 12.3777 151.426 13.0389C151.426 13.7441 151.63 14.2813 152.037 14.6505C152.445 15.0196 153.034 15.2042 153.806 15.2042C154.751 15.2042 155.495 14.948 156.039 14.4356C156.582 13.9232 156.854 13.2593 156.854 12.4438V11.1876C156.854 10.8791 156.949 10.6394 157.139 10.4686C157.329 10.2978 157.565 10.2124 157.848 10.2124C158.152 10.2124 158.394 10.3254 158.573 10.5513C158.752 10.7772 158.842 11.083 158.842 11.4686L158.842 16.2868L158.755 16.268C158.493 16.2173 158.189 16.1884 157.844 16.1812L157.669 16.1794C155.332 16.1794 153.591 16.5761 152.445 17.3695C151.299 18.1629 150.725 19.2703 150.725 20.6918C150.725 21.7717 151.119 22.6587 151.907 23.3529C152.695 24.0472 153.741 24.3943 155.044 24.3943C156.022 24.3943 156.935 24.1932 157.783 23.791C158.418 23.4893 158.935 23.0931 159.332 22.6024L159.355 22.5738L159.379 22.6477C159.504 23.005 159.733 23.3251 160.067 23.608L160.17 23.6918C160.773 24.1601 161.624 24.3943 162.721 24.3943ZM157.106 21.2786C157.372 21.6367 157.723 21.8157 158.158 21.8157L158.251 21.8125C158.436 21.7996 158.615 21.748 158.789 21.6576L158.842 21.6275V17.386L158.761 17.3612C158.576 17.3116 158.359 17.2868 158.109 17.2868C157.685 17.2868 157.345 17.4852 157.09 17.8819C156.835 18.2786 156.707 18.8626 156.707 19.6339C156.707 20.3722 156.84 20.9204 157.106 21.2786ZM174.212 24.4438C176.146 24.4438 177.629 23.9976 178.661 23.105C179.694 22.2124 180.21 20.9948 180.21 19.4521C180.21 18.5155 180.036 17.6945 179.688 16.9893C179.34 16.2841 178.732 15.6587 177.863 15.1133C176.993 14.5678 175.771 14.0527 174.195 13.5678C173.609 13.3805 173.155 13.1904 172.834 12.9976C172.514 12.8047 172.294 12.5981 172.174 12.3777C172.055 12.1573 171.995 11.9204 171.995 11.667C171.995 11.2923 172.131 10.9893 172.403 10.7579C172.674 10.5265 173.076 10.4108 173.609 10.4108C174.348 10.4108 175.046 10.6587 175.703 11.1546C176.36 11.6505 177.086 12.4989 177.879 13.7C178.085 13.9535 178.292 14.1381 178.498 14.2538C178.705 14.3695 178.9 14.4053 179.085 14.3612C179.313 14.2951 179.454 14.1436 179.509 13.9067C179.563 13.6697 179.552 13.3309 179.476 12.8901L179.052 9.84881C179.009 9.52925 178.927 9.30335 178.808 9.17112C178.688 9.03889 178.531 8.97277 178.335 8.97277C178.161 8.97277 177.944 9.03338 177.683 9.15459C177.423 9.2758 177.164 9.39977 176.909 9.52649C176.654 9.65321 176.461 9.71657 176.331 9.71657C176.211 9.71657 176.034 9.65046 175.801 9.51823C175.567 9.386 175.239 9.25377 174.815 9.12153C174.391 8.9893 173.842 8.92319 173.169 8.92319C172.049 8.92319 171.042 9.12704 170.145 9.53476C169.249 9.94247 168.542 10.5237 168.026 11.2786C167.51 12.0334 167.252 12.9342 167.252 13.981C167.252 14.9067 167.445 15.7166 167.831 16.4108C168.217 17.105 168.806 17.7 169.599 18.1959C170.392 18.6918 171.392 19.094 172.598 19.4025C173.38 19.6119 173.981 19.824 174.399 20.0389C174.817 20.2538 175.105 20.4879 175.263 20.7414C175.421 20.9948 175.499 21.2758 175.499 21.5843C175.499 21.9921 175.363 22.3281 175.092 22.5926C174.82 22.8571 174.407 22.9893 173.853 22.9893C173.332 22.9893 172.834 22.8764 172.362 22.6505C171.889 22.4246 171.403 22.0361 170.903 21.4852C170.403 20.9342 169.844 20.1794 169.224 19.2207C169.04 18.9673 168.83 18.791 168.597 18.6918C168.363 18.5926 168.127 18.5981 167.888 18.7083C167.66 18.7965 167.513 18.9838 167.448 19.2703C167.383 19.5568 167.399 19.9094 167.497 20.3281L168.002 23.6174C168.078 23.948 168.187 24.1684 168.328 24.2786C168.469 24.3888 168.621 24.4438 168.784 24.4438C168.969 24.4438 169.194 24.3832 169.461 24.262L170.259 23.8984C170.525 23.7772 170.74 23.7166 170.903 23.7166C171.066 23.7166 171.281 23.7772 171.547 23.8984C171.813 24.0196 172.161 24.1408 172.59 24.262C173.019 24.3832 173.56 24.4438 174.212 24.4438ZM189.663 23.824C188.946 24.2042 188.098 24.3943 187.12 24.3943C185.469 24.3943 184.227 23.9921 183.396 23.1876C182.565 22.3832 182.149 21.116 182.149 19.386V11.9149C182.149 11.6835 182.127 11.5072 182.084 11.386C182.041 11.2648 181.932 11.1656 181.758 11.0885L180.992 10.8405C180.807 10.7524 180.688 10.6449 180.633 10.5182C180.579 10.3915 180.552 10.2345 180.552 10.0472C180.552 9.81575 180.633 9.62567 180.796 9.47691C180.959 9.32815 181.16 9.25377 181.399 9.25377H182.198C182.296 9.25377 182.399 9.2152 182.508 9.13806C182.616 9.06093 182.763 8.90666 182.948 8.67525L185.963 6.14633C186.18 5.88186 186.398 5.68076 186.615 5.54302C186.832 5.40528 187.05 5.33641 187.267 5.33641C187.517 5.33641 187.712 5.41354 187.854 5.56781L187.898 5.6225C188.01 5.77704 188.066 6.00124 188.066 6.29509L188.065 9.25377H191.472C191.711 9.25377 191.896 9.30611 192.026 9.41079C192.157 9.51547 192.222 9.67801 192.222 9.89839C192.222 10.2069 192.086 10.4714 191.814 10.6918L191.754 10.7373C191.48 10.9273 191.065 11.0224 190.51 11.0224H188.065L188.066 18.5596C188.066 19.386 188.204 19.9976 188.481 20.3943C188.758 20.791 189.163 20.9893 189.695 20.9893C189.924 20.9893 190.136 20.9397 190.331 20.8405C190.527 20.7414 190.703 20.6119 190.861 20.4521C191.018 20.2923 191.168 20.1133 191.309 19.9149C191.45 19.7166 191.586 19.5182 191.717 19.3199C191.825 19.2758 191.92 19.2951 192.002 19.3777C192.083 19.4604 192.119 19.6284 192.108 19.8819C192.032 20.7744 191.784 21.5595 191.366 22.2372C190.948 22.9149 190.38 23.4438 189.663 23.824ZM200.339 24.3943C201.718 24.3943 202.935 24.1243 203.989 23.5843C205.043 23.0444 205.864 22.3254 206.451 21.4273C207.037 20.5292 207.331 19.5403 207.331 18.4604C207.331 18.251 207.293 18.1022 207.217 18.0141C207.14 17.9259 207.048 17.8819 206.939 17.8819C206.863 17.8819 206.774 17.9067 206.671 17.9562C206.567 18.0058 206.451 18.1022 206.32 18.2455C206.092 18.9507 205.644 19.5017 204.975 19.8984C204.307 20.2951 203.538 20.4934 202.669 20.4934C201.311 20.4934 200.224 20.0279 199.409 19.0967C198.932 18.5509 198.594 17.8243 198.396 16.9168L198.38 16.8405H205.831C206.303 16.8405 206.672 16.7161 206.94 16.4673L207.005 16.4025C207.276 16.1105 207.412 15.7111 207.412 15.2042C207.412 14.0361 207.138 12.9755 206.589 12.0224C206.04 11.0692 205.255 10.3144 204.234 9.7579C203.212 9.20142 201.996 8.92319 200.583 8.92319C198.921 8.92319 197.497 9.25377 196.313 9.91492C195.128 10.5761 194.224 11.4989 193.599 12.6835C192.974 13.8681 192.662 15.2483 192.662 16.824C192.662 18.3226 192.985 19.6422 193.632 20.7827C194.278 21.9232 195.177 22.8102 196.329 23.4438C197.481 24.0775 198.817 24.3943 200.339 24.3943ZM198.187 14.7248C198.187 14.9984 198.195 15.262 198.21 15.5156L198.212 15.5513H200.746C201.159 15.5513 201.365 15.3199 201.365 14.8571C201.365 13.3474 201.2 12.2675 200.868 11.6174C200.537 10.9673 200.181 10.6422 199.801 10.6422C199.507 10.6422 199.241 10.7662 199.002 11.0141C198.763 11.262 198.567 11.6835 198.415 12.2786C198.263 12.8736 198.187 13.689 198.187 14.7248ZM217.289 24.0637C217.55 24.0637 217.748 23.9948 217.884 23.8571C218.02 23.7193 218.088 23.5403 218.088 23.3199C218.088 23.1326 218.039 22.97 217.941 22.8323C217.843 22.6945 217.68 22.6091 217.452 22.5761L216.23 22.3281C216.023 22.2841 215.871 22.1711 215.773 21.9893C215.676 21.8075 215.627 21.5623 215.627 21.2538V15.4356C215.627 14.7854 215.665 14.251 215.741 13.8323C215.817 13.4135 215.928 13.1023 216.075 12.8984C216.222 12.6945 216.393 12.5926 216.588 12.5926C216.784 12.5926 216.925 12.6642 217.012 12.8075C217.099 12.9507 217.148 13.1491 217.159 13.4025L217.175 14.0637C217.197 14.813 217.4 15.3915 217.786 15.7992C218.172 16.2069 218.767 16.4108 219.571 16.4108C220.397 16.4108 221.07 16.1133 221.592 15.5182C222.114 14.9232 222.374 13.9921 222.374 12.7248C222.374 11.4466 222.124 10.4934 221.625 9.86534C221.125 9.23724 220.408 8.92319 219.473 8.92319C218.702 8.92319 217.99 9.16286 217.338 9.64219C216.686 10.1215 216.162 10.8543 215.765 11.8405C215.699 12.0049 215.639 12.1766 215.583 12.3555L215.555 12.4507L215.431 9.88186C215.402 9.57822 215.35 9.35729 215.273 9.21907L215.244 9.17112C215.151 9.03889 215.013 8.97277 214.828 8.97277C214.698 8.97277 214.54 8.99481 214.355 9.03889C214.171 9.08297 213.942 9.1601 213.671 9.27029L209.042 10.6091C208.781 10.7083 208.596 10.8268 208.488 10.9645C208.379 11.1022 208.325 11.2593 208.325 11.4356C208.325 11.5899 208.36 11.7166 208.431 11.8157C208.501 11.9149 208.613 12.0086 208.765 12.0967L209.189 12.1463C209.33 12.2124 209.43 12.3034 209.49 12.4191C209.55 12.5348 209.58 12.7248 209.58 12.9893V21.386C209.58 21.7166 209.553 21.9535 209.498 22.0967C209.444 22.24 209.346 22.3447 209.205 22.4108L208.83 22.5596C208.689 22.6587 208.577 22.7662 208.496 22.8819C208.414 22.9976 208.374 23.1436 208.374 23.3199C208.374 23.5513 208.442 23.7331 208.577 23.8653C208.713 23.9976 208.901 24.0637 209.14 24.0637H217.289ZM234.452 23.105C233.419 23.9976 231.936 24.4438 230.002 24.4438C229.35 24.4438 228.81 24.3832 228.38 24.262C227.951 24.1408 227.603 24.0196 227.337 23.8984C227.071 23.7772 226.856 23.7166 226.693 23.7166C226.53 23.7166 226.316 23.7772 226.05 23.8984L225.251 24.262C224.985 24.3832 224.759 24.4438 224.575 24.4438C224.412 24.4438 224.26 24.3888 224.118 24.2786C223.977 24.1684 223.868 23.948 223.792 23.6174L223.287 20.3281C223.189 19.9094 223.173 19.5568 223.238 19.2703C223.303 18.9838 223.45 18.7965 223.678 18.7083C223.917 18.5981 224.154 18.5926 224.387 18.6918C224.621 18.791 224.83 18.9673 225.015 19.2207C225.634 20.1794 226.194 20.9342 226.693 21.4852C227.193 22.0361 227.68 22.4246 228.152 22.6505C228.625 22.8764 229.122 22.9893 229.644 22.9893C230.198 22.9893 230.611 22.8571 230.882 22.5926C231.154 22.3281 231.29 21.9921 231.29 21.5843C231.29 21.2758 231.211 20.9948 231.053 20.7414C230.896 20.4879 230.608 20.2538 230.19 20.0389C229.771 19.824 229.171 19.6119 228.389 19.4025C227.182 19.094 226.183 18.6918 225.39 18.1959C224.596 17.7 224.007 17.105 223.621 16.4108C223.235 15.7166 223.043 14.9067 223.043 13.981C223.043 12.9342 223.301 12.0334 223.817 11.2786C224.333 10.5237 225.039 9.94247 225.936 9.53476C226.832 9.12704 227.84 8.92319 228.959 8.92319C229.633 8.92319 230.181 8.9893 230.605 9.12153C231.029 9.25377 231.358 9.386 231.591 9.51823C231.825 9.65046 232.001 9.71657 232.121 9.71657C232.251 9.71657 232.444 9.65321 232.7 9.52649C232.955 9.39977 233.213 9.2758 233.474 9.15459C233.734 9.03338 233.952 8.97277 234.126 8.97277C234.321 8.97277 234.479 9.03889 234.598 9.17112C234.718 9.30335 234.799 9.52925 234.843 9.84881L235.267 12.8901C235.343 13.3309 235.353 13.6697 235.299 13.9067C235.245 14.1436 235.104 14.2951 234.875 14.3612C234.691 14.4053 234.495 14.3695 234.289 14.2538C234.082 14.1381 233.876 13.9535 233.669 13.7C232.876 12.4989 232.151 11.6505 231.493 11.1546C230.836 10.6587 230.138 10.4108 229.399 10.4108C228.867 10.4108 228.465 10.5265 228.193 10.7579C227.921 10.9893 227.785 11.2923 227.785 11.667C227.785 11.9204 227.845 12.1573 227.965 12.3777C228.084 12.5981 228.304 12.8047 228.625 12.9976C228.945 13.1904 229.399 13.3805 229.986 13.5678C231.561 14.0527 232.784 14.5678 233.653 15.1133C234.522 15.6587 235.131 16.2841 235.478 16.9893C235.826 17.6945 236 18.5155 236 19.4521C236 20.9948 235.484 22.2124 234.452 23.105Z" fill="white"/>
<path fill-rule="evenodd" clip-rule="evenodd" d="M14.4893 4.44653C10.9749 0.934974 5.76554 0.429466 2.87661 3.32151C-0.0138254 6.21205 0.491663 11.4216 4.00008 14.9347C4.93606 15.8707 6.01454 16.5862 7.15301 17.0992C7.52651 14.9287 8.59748 12.8422 10.2234 11.1291C9.68496 10.9371 9.13297 10.7751 8.55698 10.6176C5.14606 9.68161 3.4511 6.83606 3.05511 3.50001C3.38262 3.89387 3.68082 4.30698 3.97814 4.71888C4.555 5.51805 5.12855 6.31263 5.90654 6.95307C7.11679 7.9496 8.44522 8.33429 9.89855 8.75515C9.95466 8.7714 10.011 8.7877 10.0674 8.80409C10.7559 9.0036 11.3544 9.2991 11.9034 9.64411C13.3464 8.58959 14.9738 7.88758 16.6538 7.59808C16.1423 6.45956 15.4253 5.38254 14.4893 4.44653ZM8.54648 17.9332C8.76998 15.7597 9.82296 13.6342 11.5104 11.9466C15.0248 8.43509 20.2342 7.92808 23.1232 10.8216C26.0136 13.7122 25.5096 18.9217 21.9967 22.4348C20.3092 24.1223 18.1838 25.1753 16.0103 25.4003C15.7208 25.4288 15.4343 25.4438 15.1538 25.4438C13.2849 25.4438 11.6154 24.7883 10.3854 23.5583C8.96947 22.1438 8.31549 20.1458 8.54648 17.9332ZM13.6869 19.7168C14.8388 18.8377 16.0853 18.4897 17.4413 18.1192C20.8522 17.1832 22.5457 14.3377 22.9432 11.0016C22.6184 11.3933 22.3224 11.8036 22.0273 12.2127C21.4487 13.0147 20.8735 13.812 20.0917 14.4547C18.8778 15.4528 17.5463 15.8382 16.0864 16.2606L15.9308 16.3057C12.5934 17.2747 10.9434 20.0963 10.5624 23.3798C10.8912 22.9848 11.1924 22.5747 11.492 22.1668C12.1423 21.2812 12.7852 20.4058 13.6869 19.7168Z" fill="#0E8784"/>
</svg>
